PathFileType	4	(X/Y/Z)	motion_data.trc
DataRate	CameraRate	NumFrames	NumMarkers	Units	OrigDataRate	OrigDataStartFrame	OrigNumFrames
30.0	30.0	43	3	mm	30.0	1	2170
Frame#	Time	r_acromion			r_humerus_epicondyle			r_radius_styloid		
		X1	Y1	Z1	X2	Y2	Z2	X3	Y3	Z3

1	0.0000	478.0375	613.6625	-36.6513	420.0838	550.2074	-62.5141	525.7335	526.1866	-118.5420
2	0.0333	477.4733	612.4946	-55.4659	406.6798	548.1366	-79.8264	515.5329	527.4410	-141.5551
3	0.0667	477.4215	611.0942	-73.4012	397.9834	545.7971	-97.3740	508.3349	528.4636	-164.9701
4	0.1000	478.3928	609.4706	-88.6336	395.3753	543.5337	-113.3743	505.2583	529.0756	-181.5790
5	0.1333	480.3447	607.9006	-97.2272	396.6197	541.9219	-122.8648	505.2747	529.2859	-181.4054
6	0.1667	482.3895	606.6635	-94.2641	398.4522	540.9845	-120.0257	506.6135	529.3436	-163.5267
7	0.2000	483.5726	605.7786	-78.8121	399.1876	540.2270	-104.2377	508.4404	529.4880	-139.6459
8	0.2333	483.8705	605.0973	-58.4227	399.1064	539.3644	-83.8968	511.3623	529.5578	-124.5368
9	0.2667	484.0202	604.5680	-45.7374	399.0821	538.5538	-71.2306	516.3740	528.9819	-123.0469
10	0.3000	484.3939	604.2221	-47.4530	399.4067	537.8912	-71.4228	523.1914	527.3839	-126.9306
11	0.3333	484.4847	603.9660	-57.4007	399.8298	537.1526	-78.1213	529.7175	525.2089	-124.9312
12	0.3667	483.6928	603.6370	-62.9985	400.2063	536.2388	-80.6577	533.5902	523.5226	-114.4957
13	0.4000	482.2566	603.2643	-58.2976	400.7549	535.5029	-74.7774	534.4313	523.0621	-102.3219
14	0.4333	480.9360	603.0046	-49.1620	401.7004	535.2595	-66.1904	534.2374	523.5556	-96.3665
15	0.4667	479.8051	602.7536	-45.9350	402.8120	535.1338	-64.3599	535.3609	523.9844	-99.7785
16	0.5000	477.8261	602.0960	-52.1845	403.3996	534.3426	-72.4997	538.2274	523.4401	-109.6241
17	0.5333	473.8961	600.8262	-60.9628	402.8709	532.6986	-83.5840	541.0018	521.8041	-118.8004
18	0.5667	468.1752	599.3210	-61.8152	401.3703	530.9753	-87.0616	541.3209	519.7771	-121.3443
19	0.6000	462.1546	598.1489	-51.2242	399.7063	530.0751	-79.2739	538.2736	518.3094	-117.7705
20	0.6333	457.2696	597.3888	-36.3999	398.2635	530.0677	-66.4381	532.4612	517.8515	-113.9017
21	0.6667	453.4266	596.5642	-29.0601	395.8436	530.2477	-58.2729	524.0092	517.9181	-114.3928
22	0.7000	449.1429	595.2661	-34.7788	389.9905	529.9798	-59.8493	511.3904	517.3334	-119.5619
23	0.7333	443.3515	593.6872	-47.6247	379.1183	529.3040	-68.5252	493.4261	515.1805	-127.8554
24	0.7667	436.7705	592.4678	-55.8522	364.6598	528.7870	-76.9700	471.9816	511.7734	-137.5364
25	0.8000	431.0490	592.0642	-53.3938	350.7171	528.8816	-79.0858	450.7371	508.5866	-145.1132
26	0.8333	426.6933	592.2904	-44.6854	340.7773	529.3807	-73.9707	431.1527	506.9234	-145.5429
27	0.8667	422.3981	592.4421	-38.2875	334.5952	529.4671	-65.1479	412.1208	506.5116	-136.3712
28	0.9000	416.6135	591.8794	-38.4724	328.8640	528.3839	-56.9599	394.1809	505.5864	-120.7704
29	0.9333	409.3233	590.5714	-43.7543	320.9719	526.1195	-51.5779	380.4895	502.6524	-104.8680
30	0.9667	401.9387	589.1224	-50.1483	311.5383	523.4408	-48.1593	371.5009	498.1504	-92.3028
31	1.0000	395.7748	588.2508	-53.5499	303.3707	521.2907	-44.5984	361.8993	494.0839	-83.4077
32	1.0333	390.9967	588.1915	-51.3109	298.4941	520.1570	-40.8704	345.8823	492.0322	-79.8637
33	1.0667	386.7597	588.5111	-44.4968	296.1958	519.8594	-40.2302	324.0586	491.9120	-86.3771
34	1.1000	381.9868	588.4453	-38.3167	293.8097	519.7860	-46.0890	303.0950	492.6288	-105.1156
35	1.1333	376.1999	587.5048	-38.5116	289.5020	519.4898	-58.2328	289.2296	493.3709	-130.9697
36	1.1667	369.9587	585.8957	-46.4285	284.0930	519.2928	-72.8145	283.2678	494.0242	-155.0225
37	1.2000	364.4341	584.3486	-57.0489	279.8955	520.1075	-84.6588	281.4084	494.6969	-170.8663
38	1.2333	360.3630	583.4508	-61.5977	278.2333	522.2263	-88.5008	279.5907	495.2710	-175.6128
39	1.2667	357.5411	583.1558	-54.4941	278.6297	524.3794	-81.2428	276.7985	495.5375	-168.7515
40	1.3000	355.4769	583.0005	-41.4982	279.9365	524.6431	-68.1067	275.6637	495.6823	-156.2392
41	1.3333	354.2210	582.7163	-39.8575	281.3776	522.6039	-65.5058	280.9350	496.4753	-154.3711
42	1.3667	354.1682	582.4785	-63.7182	282.5676	520.1614	-89.4622	295.7251	498.7363	-179.8647
43	1.4000	355.2270	582.5587	-106.4035	283.3854	519.6373	-135.7871	317.0224	502.3167	-229.3405
